<svg xmlns="http://www.w3.org/2000/svg" width="1100" height="520" viewBox="0 0 1100 520">
  <defs><linearGradient id="g" x1="0" x2="1"><stop offset="0" stop-color="#f5f3ff"/><stop offset="1" stop-color="#eff6ff"/></linearGradient><filter id="s" x="-20%" y="-20%" width="140%" height="140%"><feDropShadow dx="0" dy="14" stdDeviation="18" flood-color="#0f172a" flood-opacity=".13"/></filter></defs>
  <rect width="1100" height="520" rx="32" fill="url(#g)"/>
  <rect x="40" y="44" width="1020" height="432" rx="28" fill="white" stroke="#c7d2fe" filter="url(#s)"/>
  <text x="80" y="100" font-family="Arial, sans-serif" font-size="34" font-weight="800" fill="#111827">비주얼 모드 설치 위치 예시</text>
  <text x="80" y="140" font-family="Arial, sans-serif" font-size="20" fill="#64748b">r2modman에서 Settings → Browse profile folder로 연 폴더 기준</text>
  <rect x="80" y="178" width="260" height="64" rx="18" fill="#0f172a"/><text x="110" y="219" font-family="Arial, sans-serif" font-size="22" font-weight="700" fill="#dbeafe">프로필 폴더</text>
  <path d="M340 210 H420" stroke="#94a3b8" stroke-width="4"/><path d="M410 198 L430 210 L410 222" fill="none" stroke="#94a3b8" stroke-width="4"/>
  <rect x="440" y="178" width="220" height="64" rx="18" fill="#2563eb"/><text x="488" y="219" font-family="Arial, sans-serif" font-size="22" font-weight="700" fill="white">BepInEx</text>
  <path d="M660 210 H740" stroke="#94a3b8" stroke-width="4"/><path d="M730 198 L750 210 L730 222" fill="none" stroke="#94a3b8" stroke-width="4"/>
  <rect x="770" y="178" width="250" height="64" rx="18" fill="#7c3aed"/><text x="844" y="219" font-family="Arial, sans-serif" font-size="22" font-weight="700" fill="white">plugins</text>
  <rect x="90" y="300" width="430" height="104" rx="20" fill="#f8fafc" stroke="#dbeafe"/><text x="120" y="340" font-family="Arial, sans-serif" font-size="22" font-weight="800" fill="#1e40af">Badgers Shading Overhaul</text><text x="120" y="376" font-family="Arial, sans-serif" font-size="18" fill="#475569">압축 해제 내용 → BepInEx / plugins</text>
  <rect x="580" y="300" width="430" height="104" rx="20" fill="#f8fafc" stroke="#dbeafe"/><text x="610" y="340" font-family="Arial, sans-serif" font-size="22" font-weight="800" fill="#1e40af">Badgers HD Terrain 2.0</text><text x="610" y="376" font-family="Arial, sans-serif" font-size="18" fill="#475569">압축 해제 내용 → BepInEx / plugins</text>
  <rect x="90" y="420" width="920" height="42" rx="16" fill="#fff7ed" stroke="#fed7aa"/><text x="120" y="448" font-family="Arial, sans-serif" font-size="18" font-weight="700" fill="#9a3412">Willybach’s HD Valheim 2.0: HDValheimTexturesData 안의 Custom Textures 구조를 유지해서 배치</text>
</svg>